<svg version="1" xmlns="http://www.w3.org/2000/svg" width="2666.667" height="2666.667" viewBox="0 0 2000.000000 2000.000000"><path d="M988.5 34c-8.4 1.4-16 3.7-22.4 7-3.1 1.6-180.2 103.6-393.6 226.8-423.9 244.7-395.8 227.9-406.3 243.6-6.1 9.1-10.9 20.5-12.8 30.3-2.1 11.3-2.1 905.3 0 916.6 1.9 9.8 6.7 21.2 12.8 30.3 10.5 15.7-17.6-1.1 406.3 243.6 213.4 123.2 390.6 225.3 393.9 227 10 5 19.5 7.1 33.6 7.1 14.1 0 23.6-2.1 33.6-7.1 3.3-1.7 180.5-103.8 393.9-227 423.9-244.7 395.8-227.9 406.3-243.6 2.7-4 6.3-10.8 8.1-15 6.5-15.7 6.1 10 6.1-355.7V785h-341.8c-339.9 0-341.9 0-349.8 2-34.5 8.9-58.4 39.1-58.4 74 0 33.4 21.3 62 54.5 73.1l7 2.4 95 .6c102.1.6 98.2.4 120 6 13.2 3.4 22.3 6.7 36.3 13.5 42.8 20.5 75.3 53 95.7 95.7 30.5 63.8 25.1 139.6-14 198.2-29.7 44.4-76.1 76-127 86.3-18.4 3.8-27.7 4.2-92.7 4.2h-63.3l-38.2-62.4c-21.1-34.3-38.3-62.6-38.3-62.9 0-.4 46.2-.8 102.8-.9l102.7-.3 7-2.3c13.6-4.6 22.3-9.9 32.1-19.7 7.7-7.6 9.8-10.5 13.7-18.5 6.2-12.5 8.7-22.7 8.7-34.9-.1-33.1-20.6-61.6-52.5-72.8l-8-2.8-94.5-.6c-83.5-.4-95.6-.7-104-2.2-42.1-7.7-77.2-25.5-107.4-54.7-31.6-30.5-51.6-68.8-59.3-113.5-2.4-14-2.4-49 0-63 7.7-44.7 27.7-82.9 59.3-113.5 32-31 70.9-49.8 114.2-55.4 11.1-1.4 47.2-1.6 356.3-1.6H1848v-54.9c0-60.6-.2-63.6-6.1-77.7-1.8-4.2-5.4-11-8.1-15-10.5-15.7 17.6 1.1-406.3-243.6-213.4-123.2-390.6-225.3-393.9-227-11.6-5.9-31.4-8.9-45.1-6.8zm4.5 624.5c0 .2-4.7 5.2-10.4 10.9-29.2 29.4-50.7 63.7-64.2 102.6l-4.4 12.5-157 .3-157 .2v151h313.8l3.3 9.7c13.1 39.7 34.3 74.2 64.6 105.4l11.6 11.9H600v152h458.6l37.7 61.4c20.7 33.7 37.9 62.1 38.3 63 .6 1.5-22.4 1.6-302.3 1.6-298.3 0-303.1 0-310.7-2-22.5-5.7-40.5-23.5-46.1-45.5-1.3-5.2-1.5-40.4-1.5-293.5 0-316.1-.4-293.3 6.1-306.3 9.9-19.5 27.8-32.1 49.4-34.7 6.6-.8 463.5-1.3 463.5-.5z"/></svg>