<?xml version="1.0" encoding="utf-8"?>
<!-- Generator: Adobe Illustrator 17.0.0, SVG Export Plug-In . SVG Version: 6.00 Build 0)  -->
<!DOCTYPE svg PUBLIC "-//W3C//DTD SVG 1.1//EN" "http://www.w3.org/Graphics/SVG/1.1/DTD/svg11.dtd">
<svg version="1.1" xmlns="http://www.w3.org/2000/svg" xmlns:xlink="http://www.w3.org/1999/xlink" x="0px" y="0px" width="480px" height="480px" viewBox="0 0 480 480" enable-background="new 0 0 480 480" xml:space="preserve">
	<path fill="#1E3A4C" d="M36.484,132.5c0-5.5,3.897-12.25,8.66-15L231.34,10c4.763-2.75,12.557-2.75,17.32,0l186.195,107.5 c4.763,2.75,8.66,9.5,8.66,15v215c0,5.5-3.897,12.25-8.66,15L248.66,470c-4.763,2.75-12.557,2.75-17.32,0L45.144,362.5 c-4.763-2.75-8.66-9.5-8.66-15V132.5z"/>
	<path fill="#FFFFFF" d="M272.404,321.728h-143.62c-8.28,0-15-6.72-15-15v-133.57c0-8.28,6.71-15,15-15h109.45 c-8.86,7.98-15.51,18.35-18.95,30.08h-75.42v36.63h75.41c3.43,11.73,10.07,22.1,18.92,30.08h-94.33v36.7h110.07L272.404,321.728z" />
	<path fill="#DC6C11" d="M443.516,188.295v-30.081H281.811v-0.04c-26.74,0-48.46,21.75-48.46,48.47 c0,26.72,21.72,48.46,48.46,48.46l35.95-0.15c10.13,0,18.38,8.26,18.38,18.38c0,10.15-8.25,18.39-18.38,18.39l-45.824,0.052 l18.46,30.08l27.364-0.052c26.72,0,48.46-21.74,48.46-48.47c0-26.72-21.74-48.46-48.46-48.46l-36.77,0.13 c-9.76-0.43-17.56-8.5-17.56-18.36c0-10.15,8.24-18.39,18.38-18.39v0.04L443.516,188.295z"/>
</svg>
